nColumns=19
nRows=55
DataType=double
version=3
OpenSimVersion=4.1
endheader
time	ground_force_calcn_r_vx	ground_force_calcn_r_vy	ground_force_calcn_r_vz	ground_force_calcn_r_px	ground_force_calcn_r_py	ground_force_calcn_r_pz	ground_force_calcn_r_mx	ground_force_calcn_r_my	ground_force_calcn_r_mz	ground_force_calcn_l_vx	ground_force_calcn_l_vy	ground_force_calcn_l_vz	ground_force_calcn_l_px	ground_force_calcn_l_py	ground_force_calcn_l_pz	ground_force_calcn_l_mx	ground_force_calcn_l_my	ground_force_calcn_l_mz
1.39	0	0	0	0	0	0	0	0	0	0	0	0	0	0	0	0	0	0
1.4	0	0	0	0	0	0	0	0	0	0	0	0	0	0	0	0	0	0
1.41	0	0	0	0	0	0	0	0	0	0	0	0	0	0	0	0	0	0
1.42	-2.29681	13.5604	-0.858711	-0.00166403	0	-0.000985131	-2.53678e-21	1.49772e-20	-9.4843e-22	0	0	0	0	0	0	0	0	0
1.43	0.80496	55.0599	-4.48955	1.15199	0	-0.328291	0.00471898	0.322782	-0.0263194	0	0	0	0	0	0	0	0	0
1.44	-0.396262	209.752	-19.3113	1.05339	0	-0.293452	0.00344292	-1.82243	0.167786	0	0	0	0	0	0	0	0	0
1.45	-14.169	589.558	-33.0581	1.06056	0	-0.297508	-0.0158026	0.65753	-0.0368695	0	0	0	0	0	0	0	0	0
1.46	-68.4867	1109.5	9.13894	1.05993	0	-0.298998	-0.439439	7.119	0.0586391	0	0	0	0	0	0	0	0	0
1.47	-165.442	1407.19	129.711	1.05595	0	-0.300182	-1.40379	11.9401	1.10061	0	0	0	0	0	0	0	0	0
1.48	-249.356	1374.54	193.852	1.0466	0	-0.300792	-1.9934	10.9883	1.54969	0	0	0	0	0	0	0	0	0
1.49	-285.797	1287.3	86.9204	1.02632	0	-0.299427	-1.34153	6.04259	0.408005	0	0	0	0	0	0	0	0	0
1.5	-274.637	1314.53	-54.8967	0.990345	0	-0.295625	-0.302862	1.44963	-0.0605386	0	0	0	0	0	0	0	0	0
1.51	-242.535	1420.39	-60.8336	0.947774	0	-0.290958	-0.0470793	0.275716	-0.0118086	0	0	0	0	0	0	0	0	0
1.52	-201.396	1510.31	2.41796	0.911363	0	-0.287129	-0.203296	1.52456	0.00244078	0	0	0	0	0	0	0	0	0
1.53	-151.811	1535.05	-5.78672	0.883196	0	-0.284729	-0.222536	2.25019	-0.00848259	0	0	0	0	0	0	0	0	0
1.54	-112.181	1502.27	-53.9192	0.858314	0	-0.283209	-0.0872956	1.16902	-0.0419582	0	0	0	0	0	0	0	0	0
1.55	-87.5444	1451.45	-51.1973	0.830543	0	-0.281921	0.0279898	-0.464058	0.0163688	0	0	0	0	0	0	0	0	0
1.56	-58.8497	1399.51	-21.1975	0.795182	0	-0.28094	0.0327546	-0.77894	0.0117981	0	0	0	0	0	0	0	0	0
1.57	-8.41049	1331.35	-12.8705	0.750573	0	-0.280761	-0.00425417	0.67342	-0.00651014	0	0	0	0	0	0	0	0	0
1.58	61.7406	1229.5	-6.36458	0.699299	0	-0.28138	0.125413	2.49748	-0.0129283	0	0	0	0	0	0	0	0	0
1.59	140.669	1095.17	19.9662	0.646839	0	-0.282262	0.359297	2.79728	0.0509978	0	0	0	0	0	0	0	0	0
1.6	198.477	935.503	48.065	0.598834	0	-0.283059	0.231357	1.09048	0.0560275	0	0	0	0	0	0	0	0	0
1.61	206.794	745.154	63.4957	0.558012	0	-0.28358	-0.33708	-1.21462	-0.1035	0	0	0	0	0	0	0	0	0
1.62	169.669	527.865	62.3424	0.52209	0	-0.283283	-0.747333	-2.32506	-0.274596	0	0	0	0	0	0	0	0	0
1.63	116.599	316.414	40.9795	0.480803	0	-0.280833	-0.538534	-1.46142	-0.189272	0	0	0	0	0	0	0	0	0
1.64	71.5262	152.994	14.7451	0.396412	0	-0.26879	0.39548	0.845928	0.0815283	0	0	0	0	0	0	0	0	0
1.65	37.1271	59.1799	3.02824	-0.330689	0	-0.146054	1.92204	3.0637	0.15677	0	0	0	0	0	0	0	0	0
1.66	13.1368	23.2609	0.887914	-0.00166345	0	-0.000987741	-0	-0	-0	0	0	0	0	0	0	0	0	0
1.67	-0.010954	13.9765	-1.97489	-0.00166343	0	-0.000987843	1.36175e-21	-1.7375e-18	2.45509e-19	0	0	0	0	0	0	0	0	0
1.68	-3.91507	10.0106	-0.515072	-0.00166341	0	-0.000987944	4.58149e-20	-1.17147e-19	6.02748e-21	0	0	0	0	0	0	0	0	0
1.69	0	0	0	0	0	0	0	0	0	0	0	0	0	0	0	0	0	0
1.7	0	0	0	0	0	0	0	0	0	0	0	0	0	0	0	0	0	0
1.71	0	0	0	0	0	0	0	0	0	0	0	0	0	0	0	0	0	0
1.72	0	0	0	0	0	0	0	0	0	0	0	0	0	0	0	0	0	0
1.73	0	0	0	0	0	0	0	0	0	0.180881	18.3576	-0.140577	-0.00166392	0	-0.000986902	-0	-0	0
1.74	0	0	0	0	0	0	0	0	0	1.9123	60.6158	-7.2307	1.14374	0	-0.28539	-0.0176262	-0.558712	0.0666473
1.75	0	0	0	0	0	0	0	0	0	6.57455	209.229	-22.2297	1.03359	0	-0.320277	0.0112521	0.358088	-0.0380453
1.76	0	0	0	0	0	0	0	0	0	-3.34686	551.04	-42.4568	1.03717	0	-0.315103	-0.00851272	1.40157	-0.107989
1.77	0	0	0	0	0	0	0	0	0	-64.2381	1000.37	-51.7196	1.03454	0	-0.313187	-0.0832198	1.29597	-0.0670022
1.78	0	0	0	0	0	0	0	0	0	-157.986	1278.81	-46.957	1.02881	0	-0.312979	0.0146079	-0.118243	0.00434179
1.79	0	0	0	0	0	0	0	0	0	-213.317	1287.71	-71.2272	1.01745	0	-0.314887	0.29677	-1.79148	0.0990926
1.8	0	0	0	0	0	0	0	0	0	-225.984	1215.19	-111.99	0.9957	0	-0.319391	0.497845	-2.67708	0.246716
1.81	0	0	0	0	0	0	0	0	0	-227.958	1209.96	-66.4216	0.960933	0	-0.325519	0.540152	-2.86704	0.157388
1.82	0	0	0	0	0	0	0	0	0	-211.203	1279.27	41.0397	0.918904	0	-0.330865	0.516891	-3.13084	-0.100439
1.83	0	0	0	0	0	0	0	0	0	-161.157	1369.24	72.7136	0.879955	0	-0.334275	0.441776	-3.75347	-0.199328
1.84	0	0	0	0	0	0	0	0	0	-102.493	1429.22	31.8095	0.847889	0	-0.336377	0.297816	-4.15289	-0.0924291
1.85	0	0	0	0	0	0	0	0	0	-62.8444	1443.25	21.5003	0.819974	0	-0.337856	0.164567	-3.77934	-0.0563015
1.86	0	0	0	0	0	0	0	0	0	-32.6754	1421.46	43.7609	0.792084	0	-0.339019	0.068058	-2.9607	-0.0911475
1.87	0	0	0	0	0	0	0	0	0	1.82504	1371.49	40.1258	0.761562	0	-0.339825	-0.00338409	-2.54309	-0.0744033
1.88	0	0	0	0	0	0	0	0	0	40.2489	1297.02	17.6528	0.727905	0	-0.33988	-0.0962146	-3.10051	-0.0421988
1.89	0	0	0	0	0	0	0	0	0	78.1927	1199.2	1.94368	0.691769	0	-0.338879	-0.285091	-4.37228	-0.00708669
1.9	0	0	0	0	0	0	0	0	0	114.356	1068.26	-11.9086	0.653372	0	-0.337064	-0.558976	-5.22168	0.0582098
1.91	0	0	0	0	0	0	0	0	0	142.913	888.419	-27.6249	0.611672	0	-0.335047	-0.697524	-4.33615	0.134831
1.92	0	0	0	0	0	0	0	0	0	152.959	662.705	-39.7576	0.564763	0	-0.333185	-0.333448	-1.44468	0.0866707
1.93	0	0	0	0	0	0	0	0	0	133.574	435.614	-46.4968	0.51069	0	-0.33099	0.628658	2.05019	-0.218835
